<?xml version="1.0" encoding="UTF-8" standalone="no"?>
<!DOCTYPE svg PUBLIC "-//W3C//DTD SVG 1.1//EN"
 "http://www.w3.org/Graphics/SVG/1.1/DTD/svg11.dtd">
<!-- Generated by graphviz version 2.47.0 (20210316.0004)
 -->
<!-- Title: dependencies Pages: 1 -->
<svg width="776pt" height="211pt"
 viewBox="0.00 0.00 776.00 211.00" xmlns="http://www.w3.org/2000/svg" xmlns:xlink="http://www.w3.org/1999/xlink">
<g id="graph0" class="graph" transform="scale(1 1) rotate(0) translate(4 207)">
<title>dependencies</title>
<polygon fill="white" stroke="transparent" points="-4,4 -4,-207 772,-207 772,4 -4,4"/>
<text text-anchor="start" x="363.01" y="-42.4" font-family="sans-serif" font-weight="bold" font-size="14.00">Legend</text>
<polygon fill="#ffffb3" stroke="transparent" points="150,-10 150,-30 170,-30 170,-10 150,-10"/>
<text text-anchor="start" x="173.63" y="-15.4" font-family="sans-serif" font-size="14.00"> &#160;Declarations</text>
<polygon fill="#8dd3c7" stroke="transparent" points="263,-10 263,-30 283,-30 283,-10 263,-10"/>
<text text-anchor="start" x="286.73" y="-15.4" font-family="sans-serif" font-size="14.00"> &#160;Module</text>
<polygon fill="#80b1d3" stroke="transparent" points="349,-10 349,-30 369,-30 369,-10 349,-10"/>
<text text-anchor="start" x="372.78" y="-15.4" font-family="sans-serif" font-size="14.00"> &#160;Bootstrap</text>
<polygon fill="#fdb462" stroke="transparent" points="446,-10 446,-30 466,-30 466,-10 446,-10"/>
<text text-anchor="start" x="469.67" y="-15.4" font-family="sans-serif" font-size="14.00"> &#160;Providers</text>
<polygon fill="#fb8072" stroke="transparent" points="542,-10 542,-30 562,-30 562,-10 542,-10"/>
<text text-anchor="start" x="565.73" y="-15.4" font-family="sans-serif" font-size="14.00"> &#160;Exports</text>
<g id="clust1" class="cluster">
<title>cluster_AppModule</title>
<polygon fill="none" stroke="black" stroke-dasharray="1,5" points="8,-70 8,-195 760,-195 760,-70 8,-70"/>
</g>
<g id="clust3" class="cluster">
<title>cluster_AppModule_imports</title>
<polygon fill="none" stroke="black" points="154,-78 154,-130 752,-130 752,-78 154,-78"/>
</g>
<g id="clust6" class="cluster">
<title>cluster_AppModule_providers</title>
<polygon fill="none" stroke="black" points="16,-78 16,-130 146,-130 146,-78 16,-78"/>
</g>
<!-- AuthModule -->
<g id="node1" class="node">
<title>AuthModule</title>
<polygon fill="#8dd3c7" stroke="black" points="743.55,-122 740.55,-126 719.55,-126 716.55,-122 656.45,-122 656.45,-86 743.55,-86 743.55,-122"/>
<text text-anchor="middle" x="700" y="-99.8" font-family="Times,serif" font-size="14.00">AuthModule</text>
</g>
<!-- AppModule -->
<g id="node6" class="node">
<title>AppModule</title>
<polygon fill="#8dd3c7" stroke="black" points="451.66,-187 448.66,-191 427.66,-191 424.66,-187 368.34,-187 368.34,-151 451.66,-151 451.66,-187"/>
<text text-anchor="middle" x="410" y="-164.8" font-family="Times,serif" font-size="14.00">AppModule</text>
</g>
<!-- AuthModule&#45;&gt;AppModule -->
<g id="edge1" class="edge">
<title>AuthModule&#45;&gt;AppModule</title>
<path fill="none" stroke="black" d="M700,-122.28C700,-143.32 700,-175 700,-175 700,-175 461.86,-175 461.86,-175"/>
<polygon fill="black" stroke="black" points="461.86,-171.5 451.86,-175 461.86,-178.5 461.86,-171.5"/>
</g>
<!-- EventModule -->
<g id="node2" class="node">
<title>EventModule</title>
<polygon fill="#8dd3c7" stroke="black" points="638.21,-122 635.21,-126 614.21,-126 611.21,-122 545.79,-122 545.79,-86 638.21,-86 638.21,-122"/>
<text text-anchor="middle" x="592" y="-99.8" font-family="Times,serif" font-size="14.00">EventModule</text>
</g>
<!-- EventModule&#45;&gt;AppModule -->
<g id="edge2" class="edge">
<title>EventModule&#45;&gt;AppModule</title>
<path fill="none" stroke="black" d="M592,-122.02C592,-139.37 592,-163 592,-163 592,-163 461.75,-163 461.75,-163"/>
<polygon fill="black" stroke="black" points="461.75,-159.5 451.75,-163 461.75,-166.5 461.75,-159.5"/>
</g>
<!-- GalleryModule -->
<g id="node3" class="node">
<title>GalleryModule</title>
<polygon fill="#8dd3c7" stroke="black" points="527.53,-122 524.53,-126 503.53,-126 500.53,-122 426.47,-122 426.47,-86 527.53,-86 527.53,-122"/>
<text text-anchor="middle" x="477" y="-99.8" font-family="Times,serif" font-size="14.00">GalleryModule</text>
</g>
<!-- GalleryModule&#45;&gt;AppModule -->
<g id="edge3" class="edge">
<title>GalleryModule&#45;&gt;AppModule</title>
<path fill="none" stroke="black" d="M439.03,-122.11C439.03,-122.11 439.03,-140.99 439.03,-140.99"/>
<polygon fill="black" stroke="black" points="435.53,-140.99 439.03,-150.99 442.53,-140.99 435.53,-140.99"/>
</g>
<!-- NewsArticleModule -->
<g id="node4" class="node">
<title>NewsArticleModule</title>
<polygon fill="#8dd3c7" stroke="black" points="408.29,-122 405.29,-126 384.29,-126 381.29,-122 277.71,-122 277.71,-86 408.29,-86 408.29,-122"/>
<text text-anchor="middle" x="343" y="-99.8" font-family="Times,serif" font-size="14.00">NewsArticleModule</text>
</g>
<!-- NewsArticleModule&#45;&gt;AppModule -->
<g id="edge4" class="edge">
<title>NewsArticleModule&#45;&gt;AppModule</title>
<path fill="none" stroke="black" d="M388.16,-122.11C388.16,-122.11 388.16,-140.99 388.16,-140.99"/>
<polygon fill="black" stroke="black" points="384.66,-140.99 388.16,-150.99 391.66,-140.99 384.66,-140.99"/>
</g>
<!-- SharedModule -->
<g id="node5" class="node">
<title>SharedModule</title>
<polygon fill="#8dd3c7" stroke="black" points="260.42,-122 257.42,-126 236.42,-126 233.42,-122 161.58,-122 161.58,-86 260.42,-86 260.42,-122"/>
<text text-anchor="middle" x="211" y="-99.8" font-family="Times,serif" font-size="14.00">SharedModule</text>
</g>
<!-- SharedModule&#45;&gt;AppModule -->
<g id="edge5" class="edge">
<title>SharedModule&#45;&gt;AppModule</title>
<path fill="none" stroke="black" d="M211,-122.02C211,-139.37 211,-163 211,-163 211,-163 358.28,-163 358.28,-163"/>
<polygon fill="black" stroke="black" points="358.28,-166.5 368.28,-163 358.28,-159.5 358.28,-166.5"/>
</g>
<!-- AppService -->
<g id="node7" class="node">
<title>AppService</title>
<ellipse fill="#fdb462" stroke="black" cx="81" cy="-104" rx="56.74" ry="18"/>
<text text-anchor="middle" x="81" y="-99.8" font-family="Times,serif" font-size="14.00">AppService</text>
</g>
<!-- AppService&#45;&gt;AppModule -->
<g id="edge6" class="edge">
<title>AppService&#45;&gt;AppModule</title>
<path fill="none" stroke="black" d="M81,-122.28C81,-143.32 81,-175 81,-175 81,-175 358.33,-175 358.33,-175"/>
<polygon fill="black" stroke="black" points="358.33,-178.5 368.33,-175 358.33,-171.5 358.33,-178.5"/>
</g>
</g>
</svg>
