<?xml version="1.0" encoding="UTF-8" standalone="no"?>
<!DOCTYPE svg PUBLIC "-//W3C//DTD SVG 1.1//EN"
 "http://www.w3.org/Graphics/SVG/1.1/DTD/svg11.dtd">
<!-- Generated by graphviz version 2.47.0 (20210316.0004)
 -->
<!-- Title: dependencies Pages: 1 -->
<svg width="504pt" height="211pt"
 viewBox="0.00 0.00 504.00 211.00" xmlns="http://www.w3.org/2000/svg" xmlns:xlink="http://www.w3.org/1999/xlink">
<g id="graph0" class="graph" transform="scale(1 1) rotate(0) translate(4 207)">
<title>dependencies</title>
<polygon fill="white" stroke="transparent" points="-4,4 -4,-207 500,-207 500,4 -4,4"/>
<text text-anchor="start" x="227.01" y="-42.4" font-family="sans-serif" font-weight="bold" font-size="14.00">Legend</text>
<polygon fill="#ffffb3" stroke="transparent" points="14,-10 14,-30 34,-30 34,-10 14,-10"/>
<text text-anchor="start" x="37.63" y="-15.4" font-family="sans-serif" font-size="14.00"> &#160;Declarations</text>
<polygon fill="#8dd3c7" stroke="transparent" points="127,-10 127,-30 147,-30 147,-10 127,-10"/>
<text text-anchor="start" x="150.73" y="-15.4" font-family="sans-serif" font-size="14.00"> &#160;Module</text>
<polygon fill="#80b1d3" stroke="transparent" points="213,-10 213,-30 233,-30 233,-10 213,-10"/>
<text text-anchor="start" x="236.78" y="-15.4" font-family="sans-serif" font-size="14.00"> &#160;Bootstrap</text>
<polygon fill="#fdb462" stroke="transparent" points="310,-10 310,-30 330,-30 330,-10 310,-10"/>
<text text-anchor="start" x="333.67" y="-15.4" font-family="sans-serif" font-size="14.00"> &#160;Providers</text>
<polygon fill="#fb8072" stroke="transparent" points="406,-10 406,-30 426,-30 426,-10 406,-10"/>
<text text-anchor="start" x="429.73" y="-15.4" font-family="sans-serif" font-size="14.00"> &#160;Exports</text>
<g id="clust1" class="cluster">
<title>cluster_GalleryModule</title>
<polygon fill="none" stroke="black" stroke-dasharray="1,5" points="49,-70 49,-195 447,-195 447,-70 49,-70"/>
</g>
<g id="clust6" class="cluster">
<title>cluster_GalleryModule_providers</title>
<polygon fill="none" stroke="black" points="285,-78 285,-130 439,-130 439,-78 285,-78"/>
</g>
<g id="clust3" class="cluster">
<title>cluster_GalleryModule_imports</title>
<polygon fill="none" stroke="black" points="57,-78 57,-130 277,-130 277,-78 57,-78"/>
</g>
<!-- AuthModule -->
<g id="node1" class="node">
<title>AuthModule</title>
<polygon fill="#8dd3c7" stroke="black" points="268.55,-122 265.55,-126 244.55,-126 241.55,-122 181.45,-122 181.45,-86 268.55,-86 268.55,-122"/>
<text text-anchor="middle" x="225" y="-99.8" font-family="Times,serif" font-size="14.00">AuthModule</text>
</g>
<!-- GalleryModule -->
<g id="node3" class="node">
<title>GalleryModule</title>
<polygon fill="#8dd3c7" stroke="black" points="275.53,-187 272.53,-191 251.53,-191 248.53,-187 174.47,-187 174.47,-151 275.53,-151 275.53,-187"/>
<text text-anchor="middle" x="225" y="-164.8" font-family="Times,serif" font-size="14.00">GalleryModule</text>
</g>
<!-- AuthModule&#45;&gt;GalleryModule -->
<g id="edge1" class="edge">
<title>AuthModule&#45;&gt;GalleryModule</title>
<path fill="none" stroke="black" d="M225,-122.11C225,-122.11 225,-140.99 225,-140.99"/>
<polygon fill="black" stroke="black" points="221.5,-140.99 225,-150.99 228.5,-140.99 221.5,-140.99"/>
</g>
<!-- SharedModule -->
<g id="node2" class="node">
<title>SharedModule</title>
<polygon fill="#8dd3c7" stroke="black" points="163.42,-122 160.42,-126 139.42,-126 136.42,-122 64.58,-122 64.58,-86 163.42,-86 163.42,-122"/>
<text text-anchor="middle" x="114" y="-99.8" font-family="Times,serif" font-size="14.00">SharedModule</text>
</g>
<!-- SharedModule&#45;&gt;GalleryModule -->
<g id="edge2" class="edge">
<title>SharedModule&#45;&gt;GalleryModule</title>
<path fill="none" stroke="black" d="M114,-122.11C114,-141.34 114,-169 114,-169 114,-169 164.37,-169 164.37,-169"/>
<polygon fill="black" stroke="black" points="164.37,-172.5 174.37,-169 164.37,-165.5 164.37,-172.5"/>
</g>
<!-- GalleryService -->
<g id="node4" class="node">
<title>GalleryService</title>
<ellipse fill="#fdb462" stroke="black" cx="362" cy="-104" rx="68.89" ry="18"/>
<text text-anchor="middle" x="362" y="-99.8" font-family="Times,serif" font-size="14.00">GalleryService</text>
</g>
<!-- GalleryService&#45;&gt;GalleryModule -->
<g id="edge3" class="edge">
<title>GalleryService&#45;&gt;GalleryModule</title>
<path fill="none" stroke="black" d="M362,-122.11C362,-141.34 362,-169 362,-169 362,-169 285.62,-169 285.62,-169"/>
<polygon fill="black" stroke="black" points="285.62,-165.5 275.62,-169 285.62,-172.5 285.62,-165.5"/>
</g>
</g>
</svg>
