<?xml version="1.0" encoding="UTF-8" standalone="no"?>
<!DOCTYPE svg PUBLIC "-//W3C//DTD SVG 1.1//EN"
 "http://www.w3.org/Graphics/SVG/1.1/DTD/svg11.dtd">
<!-- Generated by graphviz version 2.47.0 (20210316.0004)
 -->
<!-- Title: dependencies Pages: 1 -->
<svg width="504pt" height="211pt"
 viewBox="0.00 0.00 504.00 211.00" xmlns="http://www.w3.org/2000/svg" xmlns:xlink="http://www.w3.org/1999/xlink">
<g id="graph0" class="graph" transform="scale(1 1) rotate(0) translate(4 207)">
<title>dependencies</title>
<polygon fill="white" stroke="transparent" points="-4,4 -4,-207 500,-207 500,4 -4,4"/>
<text text-anchor="start" x="227.01" y="-42.4" font-family="sans-serif" font-weight="bold" font-size="14.00">Legend</text>
<polygon fill="#ffffb3" stroke="transparent" points="14,-10 14,-30 34,-30 34,-10 14,-10"/>
<text text-anchor="start" x="37.63" y="-15.4" font-family="sans-serif" font-size="14.00"> &#160;Declarations</text>
<polygon fill="#8dd3c7" stroke="transparent" points="127,-10 127,-30 147,-30 147,-10 127,-10"/>
<text text-anchor="start" x="150.73" y="-15.4" font-family="sans-serif" font-size="14.00"> &#160;Module</text>
<polygon fill="#80b1d3" stroke="transparent" points="213,-10 213,-30 233,-30 233,-10 213,-10"/>
<text text-anchor="start" x="236.78" y="-15.4" font-family="sans-serif" font-size="14.00"> &#160;Bootstrap</text>
<polygon fill="#fdb462" stroke="transparent" points="310,-10 310,-30 330,-30 330,-10 310,-10"/>
<text text-anchor="start" x="333.67" y="-15.4" font-family="sans-serif" font-size="14.00"> &#160;Providers</text>
<polygon fill="#fb8072" stroke="transparent" points="406,-10 406,-30 426,-30 426,-10 406,-10"/>
<text text-anchor="start" x="429.73" y="-15.4" font-family="sans-serif" font-size="14.00"> &#160;Exports</text>
<g id="clust1" class="cluster">
<title>cluster_EventModule</title>
<polygon fill="none" stroke="black" stroke-dasharray="1,5" points="55,-70 55,-195 441,-195 441,-70 55,-70"/>
</g>
<g id="clust3" class="cluster">
<title>cluster_EventModule_imports</title>
<polygon fill="none" stroke="black" points="213,-78 213,-130 433,-130 433,-78 213,-78"/>
</g>
<g id="clust6" class="cluster">
<title>cluster_EventModule_providers</title>
<polygon fill="none" stroke="black" points="63,-78 63,-130 205,-130 205,-78 63,-78"/>
</g>
<!-- AuthModule -->
<g id="node1" class="node">
<title>AuthModule</title>
<polygon fill="#8dd3c7" stroke="black" points="424.55,-122 421.55,-126 400.55,-126 397.55,-122 337.45,-122 337.45,-86 424.55,-86 424.55,-122"/>
<text text-anchor="middle" x="381" y="-99.8" font-family="Times,serif" font-size="14.00">AuthModule</text>
</g>
<!-- EventModule -->
<g id="node3" class="node">
<title>EventModule</title>
<polygon fill="#8dd3c7" stroke="black" points="316.21,-187 313.21,-191 292.21,-191 289.21,-187 223.79,-187 223.79,-151 316.21,-151 316.21,-187"/>
<text text-anchor="middle" x="270" y="-164.8" font-family="Times,serif" font-size="14.00">EventModule</text>
</g>
<!-- AuthModule&#45;&gt;EventModule -->
<g id="edge1" class="edge">
<title>AuthModule&#45;&gt;EventModule</title>
<path fill="none" stroke="black" d="M381,-122.11C381,-141.34 381,-169 381,-169 381,-169 326.11,-169 326.11,-169"/>
<polygon fill="black" stroke="black" points="326.11,-165.5 316.11,-169 326.11,-172.5 326.11,-165.5"/>
</g>
<!-- SharedModule -->
<g id="node2" class="node">
<title>SharedModule</title>
<polygon fill="#8dd3c7" stroke="black" points="319.42,-122 316.42,-126 295.42,-126 292.42,-122 220.58,-122 220.58,-86 319.42,-86 319.42,-122"/>
<text text-anchor="middle" x="270" y="-99.8" font-family="Times,serif" font-size="14.00">SharedModule</text>
</g>
<!-- SharedModule&#45;&gt;EventModule -->
<g id="edge2" class="edge">
<title>SharedModule&#45;&gt;EventModule</title>
<path fill="none" stroke="black" d="M270,-122.11C270,-122.11 270,-140.99 270,-140.99"/>
<polygon fill="black" stroke="black" points="266.5,-140.99 270,-150.99 273.5,-140.99 266.5,-140.99"/>
</g>
<!-- EventService -->
<g id="node4" class="node">
<title>EventService</title>
<ellipse fill="#fdb462" stroke="black" cx="134" cy="-104" rx="62.54" ry="18"/>
<text text-anchor="middle" x="134" y="-99.8" font-family="Times,serif" font-size="14.00">EventService</text>
</g>
<!-- EventService&#45;&gt;EventModule -->
<g id="edge3" class="edge">
<title>EventService&#45;&gt;EventModule</title>
<path fill="none" stroke="black" d="M134,-122.11C134,-141.34 134,-169 134,-169 134,-169 213.58,-169 213.58,-169"/>
<polygon fill="black" stroke="black" points="213.58,-172.5 223.58,-169 213.58,-165.5 213.58,-172.5"/>
</g>
</g>
</svg>
