<?xml version="1.0" encoding="UTF-8" standalone="no"?>
<!DOCTYPE svg PUBLIC "-//W3C//DTD SVG 1.1//EN"
 "http://www.w3.org/Graphics/SVG/1.1/DTD/svg11.dtd">
<!-- Generated by graphviz version 2.47.0 (20210316.0004)
 -->
<!-- Title: dependencies Pages: 1 -->
<svg width="1416pt" height="352pt"
 viewBox="0.00 0.00 1416.00 352.00" xmlns="http://www.w3.org/2000/svg" xmlns:xlink="http://www.w3.org/1999/xlink">
<g id="graph0" class="graph" transform="scale(1 1) rotate(0) translate(4 348)">
<title>dependencies</title>
<polygon fill="white" stroke="transparent" points="-4,4 -4,-348 1412,-348 1412,4 -4,4"/>
<text text-anchor="start" x="683.01" y="-42.4" font-family="sans-serif" font-weight="bold" font-size="14.00">Legend</text>
<polygon fill="#ffffb3" stroke="transparent" points="470,-10 470,-30 490,-30 490,-10 470,-10"/>
<text text-anchor="start" x="493.63" y="-15.4" font-family="sans-serif" font-size="14.00"> &#160;Declarations</text>
<polygon fill="#8dd3c7" stroke="transparent" points="583,-10 583,-30 603,-30 603,-10 583,-10"/>
<text text-anchor="start" x="606.73" y="-15.4" font-family="sans-serif" font-size="14.00"> &#160;Module</text>
<polygon fill="#80b1d3" stroke="transparent" points="669,-10 669,-30 689,-30 689,-10 669,-10"/>
<text text-anchor="start" x="692.78" y="-15.4" font-family="sans-serif" font-size="14.00"> &#160;Bootstrap</text>
<polygon fill="#fdb462" stroke="transparent" points="766,-10 766,-30 786,-30 786,-10 766,-10"/>
<text text-anchor="start" x="789.67" y="-15.4" font-family="sans-serif" font-size="14.00"> &#160;Providers</text>
<polygon fill="#fb8072" stroke="transparent" points="862,-10 862,-30 882,-30 882,-10 862,-10"/>
<text text-anchor="start" x="885.73" y="-15.4" font-family="sans-serif" font-size="14.00"> &#160;Exports</text>
<g id="clust1" class="cluster">
<title>cluster_AppModule</title>
<polygon fill="none" stroke="black" stroke-dasharray="1,5" points="570,-70 570,-336 1132,-336 1132,-70 570,-70"/>
</g>
<g id="clust3" class="cluster">
<title>cluster_AppModule_imports</title>
<polygon fill="none" stroke="black" points="716,-78 716,-271 1092,-271 1092,-78 716,-78"/>
</g>
<g id="clust6" class="cluster">
<title>cluster_AppModule_providers</title>
<polygon fill="none" stroke="black" points="578,-219 578,-271 708,-271 708,-219 578,-219"/>
</g>
<g id="clust7" class="cluster">
<title>cluster_AuthModule</title>
<polygon fill="none" stroke="black" stroke-dasharray="1,5" points="1140,-211 1140,-279 1400,-279 1400,-211 1140,-211"/>
</g>
<g id="clust10" class="cluster">
<title>cluster_AuthModule_exports</title>
<polygon fill="none" stroke="black" points="1290,-219 1290,-271 1392,-271 1392,-219 1290,-219"/>
</g>
<g id="clust12" class="cluster">
<title>cluster_AuthModule_providers</title>
<polygon fill="none" stroke="black" points="1148,-219 1148,-271 1282,-271 1282,-219 1148,-219"/>
</g>
<g id="clust13" class="cluster">
<title>cluster_EventModule</title>
<polygon fill="none" stroke="black" stroke-dasharray="1,5" points="8,-135 8,-203 166,-203 166,-135 8,-135"/>
</g>
<g id="clust18" class="cluster">
<title>cluster_EventModule_providers</title>
<polygon fill="none" stroke="black" points="16,-143 16,-195 158,-195 158,-143 16,-143"/>
</g>
<g id="clust19" class="cluster">
<title>cluster_GalleryModule</title>
<polygon fill="none" stroke="black" stroke-dasharray="1,5" points="174,-135 174,-203 344,-203 344,-135 174,-135"/>
</g>
<g id="clust24" class="cluster">
<title>cluster_GalleryModule_providers</title>
<polygon fill="none" stroke="black" points="182,-143 182,-195 336,-195 336,-143 182,-143"/>
</g>
<g id="clust25" class="cluster">
<title>cluster_NewsArticleModule</title>
<polygon fill="none" stroke="black" stroke-dasharray="1,5" points="352,-135 352,-203 562,-203 562,-135 352,-135"/>
</g>
<g id="clust30" class="cluster">
<title>cluster_NewsArticleModule_providers</title>
<polygon fill="none" stroke="black" points="360,-143 360,-195 554,-195 554,-143 360,-143"/>
</g>
<!-- AuthModule -->
<g id="node1" class="node">
<title>AuthModule</title>
<polygon fill="#8dd3c7" stroke="black" points="1072.55,-187 1069.55,-191 1048.55,-191 1045.55,-187 985.45,-187 985.45,-151 1072.55,-151 1072.55,-187"/>
<text text-anchor="middle" x="1029" y="-164.8" font-family="Times,serif" font-size="14.00">AuthModule</text>
</g>
<!-- EventModule -->
<g id="node2" class="node">
<title>EventModule</title>
<polygon fill="#8dd3c7" stroke="black" points="816.21,-263 813.21,-267 792.21,-267 789.21,-263 723.79,-263 723.79,-227 816.21,-227 816.21,-263"/>
<text text-anchor="middle" x="770" y="-240.8" font-family="Times,serif" font-size="14.00">EventModule</text>
</g>
<!-- AuthModule&#45;&gt;EventModule -->
<g id="edge10" class="edge">
<title>AuthModule&#45;&gt;EventModule</title>
<path fill="none" stroke="black" d="M985.45,-166C917.27,-166 793.05,-166 793.05,-166 793.05,-166 793.05,-216.68 793.05,-216.68"/>
<polygon fill="black" stroke="black" points="789.55,-216.68 793.05,-226.68 796.55,-216.68 789.55,-216.68"/>
</g>
<!-- GalleryModule -->
<g id="node3" class="node">
<title>GalleryModule</title>
<polygon fill="#8dd3c7" stroke="black" points="935.53,-263 932.53,-267 911.53,-267 908.53,-263 834.47,-263 834.47,-227 935.53,-227 935.53,-263"/>
<text text-anchor="middle" x="885" y="-240.8" font-family="Times,serif" font-size="14.00">GalleryModule</text>
</g>
<!-- AuthModule&#45;&gt;GalleryModule -->
<g id="edge13" class="edge">
<title>AuthModule&#45;&gt;GalleryModule</title>
<path fill="none" stroke="black" d="M985.33,-173C958.58,-173 929.44,-173 929.44,-173 929.44,-173 929.44,-216.83 929.44,-216.83"/>
<polygon fill="black" stroke="black" points="925.94,-216.83 929.44,-226.83 932.94,-216.83 925.94,-216.83"/>
</g>
<!-- NewsArticleModule -->
<g id="node4" class="node">
<title>NewsArticleModule</title>
<polygon fill="#8dd3c7" stroke="black" points="1084.29,-263 1081.29,-267 1060.29,-267 1057.29,-263 953.71,-263 953.71,-227 1084.29,-227 1084.29,-263"/>
<text text-anchor="middle" x="1019" y="-240.8" font-family="Times,serif" font-size="14.00">NewsArticleModule</text>
</g>
<!-- AuthModule&#45;&gt;NewsArticleModule -->
<g id="edge16" class="edge">
<title>AuthModule&#45;&gt;NewsArticleModule</title>
<path fill="none" stroke="black" d="M1029,-187.01C1029,-187.01 1029,-216.85 1029,-216.85"/>
<polygon fill="black" stroke="black" points="1025.5,-216.85 1029,-226.85 1032.5,-216.85 1025.5,-216.85"/>
</g>
<!-- AppModule -->
<g id="node6" class="node">
<title>AppModule</title>
<polygon fill="#8dd3c7" stroke="black" points="993.66,-328 990.66,-332 969.66,-332 966.66,-328 910.34,-328 910.34,-292 993.66,-292 993.66,-328"/>
<text text-anchor="middle" x="952" y="-305.8" font-family="Times,serif" font-size="14.00">AppModule</text>
</g>
<!-- AuthModule&#45;&gt;AppModule -->
<g id="edge1" class="edge">
<title>AuthModule&#45;&gt;AppModule</title>
<path fill="none" stroke="black" d="M985.09,-180C965.96,-180 947.82,-180 947.82,-180 947.82,-180 947.82,-281.92 947.82,-281.92"/>
<polygon fill="black" stroke="black" points="944.32,-281.92 947.82,-291.92 951.32,-281.92 944.32,-281.92"/>
</g>
<!-- JwtStrategy  -->
<g id="node8" class="node">
<title>JwtStrategy </title>
<polygon fill="#fb8072" stroke="black" points="1383.6,-263 1298.4,-263 1298.4,-227 1383.6,-227 1383.6,-263"/>
<text text-anchor="middle" x="1341" y="-240.8" font-family="Times,serif" font-size="14.00">JwtStrategy </text>
</g>
<!-- AuthModule&#45;&gt;JwtStrategy  -->
<g id="edge8" class="edge">
<title>AuthModule&#45;&gt;JwtStrategy </title>
<path fill="none" stroke="black" stroke-dasharray="5,2" d="M1072.71,-163C1158.58,-163 1341,-163 1341,-163 1341,-163 1341,-216.8 1341,-216.8"/>
<polygon fill="black" stroke="black" points="1337.5,-216.8 1341,-226.8 1344.5,-216.8 1337.5,-216.8"/>
</g>
<!-- EventModule&#45;&gt;AppModule -->
<g id="edge2" class="edge">
<title>EventModule&#45;&gt;AppModule</title>
<path fill="none" stroke="black" d="M770,-263.02C770,-280.37 770,-304 770,-304 770,-304 900.25,-304 900.25,-304"/>
<polygon fill="black" stroke="black" points="900.25,-307.5 910.25,-304 900.25,-300.5 900.25,-307.5"/>
</g>
<!-- GalleryModule&#45;&gt;AppModule -->
<g id="edge3" class="edge">
<title>GalleryModule&#45;&gt;AppModule</title>
<path fill="none" stroke="black" d="M922.97,-263.11C922.97,-263.11 922.97,-281.99 922.97,-281.99"/>
<polygon fill="black" stroke="black" points="919.47,-281.99 922.97,-291.99 926.47,-281.99 919.47,-281.99"/>
</g>
<!-- NewsArticleModule&#45;&gt;AppModule -->
<g id="edge4" class="edge">
<title>NewsArticleModule&#45;&gt;AppModule</title>
<path fill="none" stroke="black" d="M973.84,-263.11C973.84,-263.11 973.84,-281.99 973.84,-281.99"/>
<polygon fill="black" stroke="black" points="970.34,-281.99 973.84,-291.99 977.34,-281.99 970.34,-281.99"/>
</g>
<!-- SharedModule -->
<g id="node5" class="node">
<title>SharedModule</title>
<polygon fill="#8dd3c7" stroke="black" points="1015.42,-122 1012.42,-126 991.42,-126 988.42,-122 916.58,-122 916.58,-86 1015.42,-86 1015.42,-122"/>
<text text-anchor="middle" x="966" y="-99.8" font-family="Times,serif" font-size="14.00">SharedModule</text>
</g>
<!-- SharedModule&#45;&gt;AuthModule -->
<g id="edge7" class="edge">
<title>SharedModule&#45;&gt;AuthModule</title>
<path fill="none" stroke="black" d="M1000.22,-122.11C1000.22,-122.11 1000.22,-140.99 1000.22,-140.99"/>
<polygon fill="black" stroke="black" points="996.72,-140.99 1000.22,-150.99 1003.72,-140.99 996.72,-140.99"/>
</g>
<!-- SharedModule&#45;&gt;EventModule -->
<g id="edge11" class="edge">
<title>SharedModule&#45;&gt;EventModule</title>
<path fill="none" stroke="black" d="M916.54,-104C858.48,-104 770,-104 770,-104 770,-104 770,-216.86 770,-216.86"/>
<polygon fill="black" stroke="black" points="766.5,-216.86 770,-226.86 773.5,-216.86 766.5,-216.86"/>
</g>
<!-- SharedModule&#45;&gt;GalleryModule -->
<g id="edge14" class="edge">
<title>SharedModule&#45;&gt;GalleryModule</title>
<path fill="none" stroke="black" d="M923.11,-122.14C923.11,-122.14 923.11,-216.93 923.11,-216.93"/>
<polygon fill="black" stroke="black" points="919.61,-216.92 923.11,-226.93 926.61,-216.93 919.61,-216.92"/>
</g>
<!-- SharedModule&#45;&gt;NewsArticleModule -->
<g id="edge17" class="edge">
<title>SharedModule&#45;&gt;NewsArticleModule</title>
<path fill="none" stroke="black" d="M974.77,-122.14C974.77,-122.14 974.77,-216.93 974.77,-216.93"/>
<polygon fill="black" stroke="black" points="971.27,-216.92 974.77,-226.93 978.27,-216.93 971.27,-216.92"/>
</g>
<!-- SharedModule&#45;&gt;AppModule -->
<g id="edge5" class="edge">
<title>SharedModule&#45;&gt;AppModule</title>
<path fill="none" stroke="black" d="M941.79,-122.28C941.79,-122.28 941.79,-281.76 941.79,-281.76"/>
<polygon fill="black" stroke="black" points="938.29,-281.76 941.79,-291.76 945.29,-281.76 938.29,-281.76"/>
</g>
<!-- AppService -->
<g id="node7" class="node">
<title>AppService</title>
<ellipse fill="#fdb462" stroke="black" cx="643" cy="-245" rx="56.74" ry="18"/>
<text text-anchor="middle" x="643" y="-240.8" font-family="Times,serif" font-size="14.00">AppService</text>
</g>
<!-- AppService&#45;&gt;AppModule -->
<g id="edge6" class="edge">
<title>AppService&#45;&gt;AppModule</title>
<path fill="none" stroke="black" d="M643,-263.28C643,-284.32 643,-316 643,-316 643,-316 900.33,-316 900.33,-316"/>
<polygon fill="black" stroke="black" points="900.33,-319.5 910.33,-316 900.33,-312.5 900.33,-319.5"/>
</g>
<!-- AuthService -->
<g id="node9" class="node">
<title>AuthService</title>
<ellipse fill="#fdb462" stroke="black" cx="1215" cy="-245" rx="59.11" ry="18"/>
<text text-anchor="middle" x="1215" y="-240.8" font-family="Times,serif" font-size="14.00">AuthService</text>
</g>
<!-- AuthService&#45;&gt;AuthModule -->
<g id="edge9" class="edge">
<title>AuthService&#45;&gt;AuthModule</title>
<path fill="none" stroke="black" d="M1215,-226.97C1215,-206.23 1215,-175 1215,-175 1215,-175 1082.61,-175 1082.61,-175"/>
<polygon fill="black" stroke="black" points="1082.61,-171.5 1072.61,-175 1082.61,-178.5 1082.61,-171.5"/>
</g>
<!-- EventService -->
<g id="node10" class="node">
<title>EventService</title>
<ellipse fill="#fdb462" stroke="black" cx="87" cy="-169" rx="62.54" ry="18"/>
<text text-anchor="middle" x="87" y="-164.8" font-family="Times,serif" font-size="14.00">EventService</text>
</g>
<!-- EventService&#45;&gt;EventModule -->
<g id="edge12" class="edge">
<title>EventService&#45;&gt;EventModule</title>
<path fill="none" stroke="black" d="M87,-187.04C87,-199.56 87,-214 87,-214 87,-214 746.95,-214 746.95,-214 746.95,-214 746.95,-216.97 746.95,-216.97"/>
<polygon fill="black" stroke="black" points="743.45,-216.97 746.95,-226.97 750.45,-216.97 743.45,-216.97"/>
</g>
<!-- GalleryService -->
<g id="node11" class="node">
<title>GalleryService</title>
<ellipse fill="#fdb462" stroke="black" cx="259" cy="-169" rx="68.89" ry="18"/>
<text text-anchor="middle" x="259" y="-164.8" font-family="Times,serif" font-size="14.00">GalleryService</text>
</g>
<!-- GalleryService&#45;&gt;GalleryModule -->
<g id="edge15" class="edge">
<title>GalleryService&#45;&gt;GalleryModule</title>
<path fill="none" stroke="black" d="M259,-187.24C259,-194.43 259,-201 259,-201 259,-201 875.51,-201 875.51,-201 875.51,-201 875.51,-216.85 875.51,-216.85"/>
<polygon fill="black" stroke="black" points="872.01,-216.85 875.51,-226.85 879.01,-216.85 872.01,-216.85"/>
</g>
<!-- NewsArticleService -->
<g id="node12" class="node">
<title>NewsArticleService</title>
<ellipse fill="#fdb462" stroke="black" cx="457" cy="-169" rx="88.58" ry="18"/>
<text text-anchor="middle" x="457" y="-164.8" font-family="Times,serif" font-size="14.00">NewsArticleService</text>
</g>
<!-- NewsArticleService&#45;&gt;NewsArticleModule -->
<g id="edge18" class="edge">
<title>NewsArticleService&#45;&gt;NewsArticleModule</title>
<path fill="none" stroke="black" d="M531.04,-159C671.85,-159 964.31,-159 964.31,-159 964.31,-159 964.31,-216.76 964.31,-216.76"/>
<polygon fill="black" stroke="black" points="960.81,-216.76 964.31,-226.76 967.81,-216.76 960.81,-216.76"/>
</g>
</g>
</svg>
